<svg width="46" height="30" viewBox="0 0 46 30" fill="none" xmlns="http://www.w3.org/2000/svg">
<g id="Payment Method/ApplePay">
<rect x="0.8125" y="0.1875" width="44.625" height="29.625" rx="2.8125" fill="white"/>
<path id="Vector" fill-rule="evenodd" clip-rule="evenodd" d="M11.5661 11.046C12.1548 11.0957 12.7436 10.7481 13.1115 10.3073C13.4733 9.85414 13.7125 9.24578 13.6512 8.625C13.1299 8.64983 12.486 8.97264 12.1181 9.4258C11.7808 9.81689 11.4925 10.4501 11.5661 11.046ZM18.5695 19.0416V9.36372H22.1571C24.0091 9.36372 25.3031 10.6549 25.3031 12.5421C25.3031 14.4293 23.9846 15.7329 22.108 15.7329H20.0536V19.0416H18.5695ZM13.645 11.164C13.1264 11.1338 12.6531 11.3219 12.2708 11.4738C12.0249 11.5716 11.8165 11.6544 11.6581 11.6544C11.4802 11.6544 11.2633 11.5672 11.0198 11.4692C10.7006 11.3409 10.3358 11.1942 9.95321 11.2012C9.07626 11.2136 8.26062 11.7165 7.81295 12.5173C6.89306 14.1189 7.57378 16.4902 8.463 17.7939C8.89841 18.4395 9.41968 19.1472 10.1065 19.1223C10.4087 19.1108 10.6261 19.0174 10.851 18.9208C11.11 18.8095 11.379 18.694 11.7991 18.694C12.2046 18.694 12.4619 18.8065 12.7089 18.9146C12.9437 19.0173 13.1692 19.116 13.504 19.1099C14.2153 19.0975 14.663 18.4643 15.0984 17.8187C15.5683 17.1258 15.7748 16.4495 15.8061 16.3469C15.8079 16.341 15.8091 16.337 15.8098 16.335C15.8091 16.3343 15.8033 16.3316 15.793 16.3268C15.6359 16.254 14.4354 15.6977 14.4239 14.2058C14.4123 12.9535 15.3761 12.3191 15.5278 12.2192C15.5371 12.2131 15.5433 12.209 15.5461 12.2069C14.9329 11.2881 13.9762 11.1888 13.645 11.164ZM28.0137 19.1161C28.9459 19.1161 29.8106 18.6381 30.2031 17.8808H30.2337V19.0416H31.6074V14.2244C31.6074 12.8277 30.5036 11.9275 28.8048 11.9275C27.2288 11.9275 26.0636 12.8401 26.0207 14.094H27.3576C27.4679 13.4981 28.0137 13.107 28.7619 13.107C29.6695 13.107 30.1785 13.5353 30.1785 14.3237V14.8576L28.3265 14.9693C26.6033 15.0749 25.6711 15.7888 25.6711 17.0303C25.6711 18.2843 26.6339 19.1161 28.0137 19.1161ZM28.4123 17.9677C27.6212 17.9677 27.1183 17.5828 27.1183 16.9931C27.1183 16.3847 27.6028 16.0309 28.5288 15.975L30.1784 15.8695V16.4157C30.1784 17.3221 29.418 17.9677 28.4123 17.9677ZM36.1639 19.4203C35.569 21.115 34.8883 21.6737 33.441 21.6737C33.3306 21.6737 32.9627 21.6613 32.8768 21.6365V20.4756C32.9688 20.488 33.1957 20.5005 33.3122 20.5005C33.9684 20.5005 34.3364 20.2211 34.5633 19.4948L34.6982 19.0665L32.1838 12.0207H33.7354L35.4832 17.738H35.5138L37.2616 12.0207H38.7702L36.1639 19.4203ZM20.0535 10.6301H21.7645C23.0523 10.6301 23.7882 11.3254 23.7882 12.5483C23.7882 13.7712 23.0523 14.4727 21.7583 14.4727H20.0535V10.6301Z" fill="black"/>
<rect x="0.8125" y="0.1875" width="44.625" height="29.625" rx="2.8125" stroke="#DDDDDD" stroke-width="0.375"/>
</g>
</svg>
