<svg width="40" height="40" viewBox="0 0 40 40" fill="none" xmlns="http://www.w3.org/2000/svg">
<g id="Cart">
<g id="Group">
<path id="Vector" d="M27.9481 13.2941L11.2659 11.963C11.9403 11.963 12.73 11.3271 12.9962 11.0757L28.9258 12.5093C29.0439 12.5199 29.0766 12.6772 28.9726 12.7341L27.9481 13.2941Z" fill="white"/>
<g id="Group_2">
<path id="Vector_2" d="M29.0137 12.4874L27.7263 13.2473C26.0581 29.4326 27.0312 33.4789 27.7263 33.4789C27.7263 33.4789 31.0106 31.4511 31.0095 31.0831C31.0084 30.7161 30.3034 18.9872 29.0731 12.5131C29.0679 12.486 29.0376 12.4733 29.0137 12.4874Z" stroke="white" stroke-width="0.8"/>
<g id="Group_3">
<path id="Vector_3" d="M27.5931 13.2498C27.5931 13.2498 11.2929 11.4655 11.0082 12.1369C10.724 12.8069 9.84774 25.1367 9.84425 30.6503C9.84424 30.67 9.85853 30.6856 9.87794 30.6887L27.5634 33.5074C27.5951 33.5124 27.6213 33.4836 27.6086 33.4542C26.4091 30.6744 27.2557 19.2798 27.5931 13.2498Z" stroke="white" stroke-width="0.8" stroke-miterlimit="10"/>
<path id="Vector_4" d="M27.6192 12.8921C27.6192 12.8921 10.8482 12.3183 11.0218 12.0828C11.1955 11.8474 12.809 11.4972 12.9 11.4811C12.976 11.4676 25.037 12.2268 28.9934 12.4763C29.1385 12.4854 29.139 12.696 28.9949 12.7146L27.6192 12.8921Z" stroke="white" stroke-width="0.8"/>
<path id="Vector_5" d="M15.9689 14.4682C15.9541 12.2312 15.9689 6.79858 19.2965 6.79858C23.0234 6.79858 22.9152 11.3691 22.9152 14.7871" stroke="white" stroke-width="0.8" stroke-linecap="round"/>
<path id="Vector_6" d="M17.9993 12.1149C17.9844 9.85913 18.6332 5.34766 21.3473 5.34766C24.7399 5.34766 25.2753 9.08854 25.2753 12.5352" stroke="white" stroke-width="0.8" stroke-linecap="round"/>
</g>
</g>
</g>
<path id="Vector_7" d="M27.6245 34.3996C19.1643 33.5285 9.02223 31.3833 9.53741 30.8379L27.6245 33.1873C28.6605 32.619 30.6718 31.2514 30.8322 31.148C31.0327 31.0188 31.9002 31.2181 33.0964 31.4083C33.9544 31.5446 33.503 32.2877 31.6846 33.1874C30.6886 33.6801 29.454 34.588 27.6245 34.3996Z" fill="white"/>
</g>
</svg>
