<svg width="45" height="30" viewBox="0 0 45 30" fill="none" xmlns="http://www.w3.org/2000/svg">
<g id="Payment Method/GooglePay">
<rect x="0.1875" y="0.1875" width="44.625" height="29.625" rx="2.8125" fill="white"/>
<g id="Vector">
<path fill-rule="evenodd" clip-rule="evenodd" d="M21.1915 18.7103V14.9266H23.1444C23.9446 14.9266 24.62 14.6585 25.1706 14.1296L25.3028 13.9956C26.3086 12.9007 26.2425 11.195 25.1706 10.182C24.6347 9.64574 23.9005 9.35526 23.1444 9.37016H20.0095V18.7103H21.1915ZM21.1916 13.7795V10.5172H23.1742C23.6001 10.5172 24.0039 10.681 24.305 10.979C24.9438 11.6046 24.9585 12.6474 24.3417 13.2954C24.0406 13.6157 23.6147 13.7944 23.1742 13.7795H21.1916Z" fill="black"/>
<path fill-rule="evenodd" clip-rule="evenodd" d="M30.8164 12.8187C30.3098 12.3495 29.6197 12.1111 28.746 12.1111C27.6228 12.1111 26.7785 12.5282 26.2205 13.355L27.263 14.0179C27.6448 13.4518 28.166 13.1688 28.8268 13.1688C29.2453 13.1688 29.649 13.3252 29.9647 13.6083C30.2731 13.8764 30.4493 14.2637 30.4493 14.6734V14.949C29.9941 14.6957 29.4215 14.5616 28.7167 14.5616C27.8944 14.5616 27.2337 14.7553 26.7418 15.1501C26.2499 15.5448 26.0003 16.0662 26.0003 16.7291C25.9856 17.3324 26.2425 17.9059 26.6977 18.2932C27.1602 18.7104 27.7476 18.9189 28.4377 18.9189C29.2526 18.9189 29.8987 18.5539 30.3905 17.824H30.4419V18.7104H31.5725V14.7702C31.5725 13.9434 31.3229 13.288 30.8164 12.8187ZM27.6083 17.5335C27.366 17.3548 27.2191 17.0643 27.2191 16.7514C27.2191 16.4014 27.3807 16.1109 27.6964 15.88C28.0195 15.6491 28.4233 15.5299 28.9006 15.5299C29.5615 15.5225 30.0755 15.6714 30.4426 15.9694C30.4426 16.4758 30.2443 16.9153 29.8552 17.2877C29.5027 17.6452 29.0254 17.8463 28.5261 17.8463C28.1957 17.8538 27.8726 17.7421 27.6083 17.5335Z" fill="black"/>
<path d="M34.1128 21.5184L38.0625 12.3197H36.7778L34.9497 16.9079H34.9277L33.0556 12.3197H31.7708L34.3624 18.3007L32.8941 21.5184H34.1128Z" fill="black"/>
<path d="M17.1108 14.1073C17.1108 13.7423 17.0814 13.3773 17.0227 13.0198H12.0377V15.083H14.8936C14.7762 15.7459 14.3944 16.3418 13.8364 16.7142V18.0549H15.5397C16.5382 17.1238 17.1108 15.7459 17.1108 14.1073Z" fill="black"/>
<path d="M12.038 19.3509C13.4622 19.3509 14.666 18.8742 15.5397 18.0549L13.8364 16.7142C13.3592 17.0419 12.7501 17.2281 12.038 17.2281C10.6577 17.2281 9.49042 16.2822 9.07195 15.016H7.31731V16.4014C8.21299 18.2113 10.041 19.3509 12.038 19.3509Z" fill="black"/>
<path d="M9.07195 15.016C8.85167 14.3531 8.85187 13.6306 9.07215 12.9603V11.5823H7.31723C6.56092 13.0943 6.56092 14.8819 7.31723 16.3939L9.07195 15.016Z" fill="black"/>
<path d="M12.038 10.7481C12.7941 10.7332 13.521 11.0237 14.0642 11.5525L15.5766 10.0182C14.6149 9.10946 13.3521 8.61043 12.038 8.62532C10.041 8.62532 8.2129 9.77238 7.31723 11.5823L9.07195 12.9677C9.49042 11.694 10.6577 10.7481 12.038 10.7481Z" fill="black"/>
</g>
<rect x="0.1875" y="0.1875" width="44.625" height="29.625" rx="2.8125" stroke="#DDDDDD" stroke-width="0.375"/>
</g>
</svg>
