<svg width="30" height="30" viewBox="0 0 30 30" fill="none" xmlns="http://www.w3.org/2000/svg">
<g id="Mail_white">
<g id="Mail">
<path id="Combined-Shape" fill-rule="evenodd" clip-rule="evenodd" d="M15 30C6.71573 30 0 23.2843 0 15C0 6.71573 6.71573 0 15 0C23.2843 0 30 6.71573 30 15C30 23.2843 23.2843 30 15 30ZM15.209 14.1581C16.4372 14.1581 22.409 10.8 22.409 10.8L22.4186 10.2C22.4186 9.5376 21.881 9 21.2168 9H9.2012C8.5376 9 8 9.5376 8 10.2V10.7346C8 10.7346 14.0372 14.1581 15.209 14.1581ZM8.0096 12.6C8.009 12.6 14.0372 15.8081 15.209 15.8081C16.4936 15.8081 22.409 12.6 22.409 12.6L22.4186 19.8C22.4186 20.4624 21.881 21 21.2168 21H9.2012C8.5382 21 8 20.4624 8 19.8L8.0096 12.6Z" fill="white"/>
</g>
</g>
</svg>
