<svg width="164" height="94" viewBox="0 0 164 94" fill="none" xmlns="http://www.w3.org/2000/svg">
<path id="Mark Header" fill-rule="evenodd" clip-rule="evenodd" d="M78.3944 -69.9534C74.6426 -70.033 70.6224 -70.1183 67.2597 -69.2223L65.2704 -36.5316L42.295 -62.4845C38.1699 -60.2557 34.9993 -57.0117 31.761 -53.6985C31.1267 -53.0495 30.4897 -52.3978 29.8424 -51.7505C28.6535 -50.5615 27.5638 -49.4885 26.5457 -48.4859C21.7079 -43.7218 18.4855 -40.5484 13.898 -34.0875C15.8755 -30.9723 18.4548 -28.2774 20.9898 -25.6285C21.8414 -24.7387 22.688 -23.8541 23.5052 -22.9605L34.582 -10.5683L1.25659 -12.5962C-0.0842957 -8.10337 -0.0324284 -3.56759 0.0205457 1.06499C0.0309234 1.97252 0.0413436 2.88377 0.0413435 3.79913C0.0413435 5.48058 0.0296058 7.00983 0.0186388 8.43867C-0.0334746 15.2283 -0.0681864 19.7508 1.25659 27.5632C4.85761 28.3676 8.587 28.4494 12.2526 28.5299H12.2526H12.2529C13.4842 28.5569 14.7082 28.5838 15.9178 28.6378L32.5149 29.568L7.51486 51.7C9.74364 55.8251 12.9876 58.9957 16.3008 62.234C16.9499 62.8683 17.6016 63.5053 18.2488 64.1526C19.4378 65.3415 20.5108 66.4312 21.5134 67.4493C26.2776 72.2871 29.4509 75.5095 35.9119 80.097C39.0269 78.1195 41.7219 75.5403 44.3707 73.0053L44.3708 73.0051L44.371 73.005C45.2607 72.1535 46.1452 71.3069 47.0388 70.4898L59.4321 59.412L57.4041 92.7384C61.897 94.0793 66.4328 94.0274 71.0653 93.9744H71.0662H71.0671C71.9741 93.964 72.8847 93.9536 73.7995 93.9536C75.4809 93.9536 77.0101 93.9653 78.439 93.9763C85.2286 94.0284 89.7511 94.0631 97.5635 92.7384C98.3679 89.1374 98.4498 85.408 98.5302 81.7425V81.7423V81.742C98.5572 80.5107 98.5841 79.2867 98.6381 78.0771L99.5131 62.4656C105.784 69.7163 112.106 76.8862 119.123 83.9031C119.771 84.551 120.571 85.0469 121.371 85.5429L121.371 85.543C128.441 81.0639 134.53 75.299 140.305 69.5241C141 68.8293 141.739 68.121 142.493 67.3984C145.202 64.8017 148.105 62.0193 149.849 59.008L128.776 35.2033C138.771 35.9348 148.723 36.5899 159.094 36.5899C160.01 36.5899 160.926 36.3749 161.843 36.16C163.675 27.993 163.904 19.6111 163.904 11.4442C163.904 10.4616 163.926 9.43825 163.948 8.39413C164.028 4.64227 164.113 0.622025 163.217 -2.74059L131.485 -4.67154C139.07 -11.2217 146.57 -17.7951 153.902 -25.1279C154.55 -25.7759 155.046 -26.5758 155.542 -27.3757C151.063 -34.4465 145.298 -40.5354 139.523 -46.3103C138.829 -47.005 138.121 -47.7439 137.398 -48.4977L137.398 -48.498C134.801 -51.2073 132.019 -54.1103 129.007 -55.8545L105.204 -34.7817C105.935 -44.7768 106.59 -54.7283 106.59 -65.0988C106.59 -66.0151 106.375 -66.9314 106.16 -67.8478C97.9934 -69.6804 89.6115 -69.9095 81.4445 -69.9095C80.4619 -69.9095 79.4386 -69.9312 78.3944 -69.9534Z" fill="white"/>
</svg>
