<svg width="80" height="80" viewBox="0 0 80 80" fill="none" xmlns="http://www.w3.org/2000/svg">
<path id="Union" fill-rule="evenodd" clip-rule="evenodd" d="M38.2424 0.0227467C36.4121 -0.0160913 34.451 -0.0577076 32.8106 0.3794L31.8402 16.3265L20.6323 3.66623C18.62 4.75347 17.0734 6.33594 15.4937 7.95218C15.1842 8.2688 14.8735 8.58672 14.5577 8.90247C13.9777 9.48247 13.4462 10.0059 12.9495 10.495C10.5895 12.819 9.01757 14.3671 6.77972 17.5188C7.74439 19.0385 9.00259 20.3531 10.2393 21.6453C10.6547 22.0793 11.0677 22.5109 11.4663 22.9468L16.8698 28.992L0.612991 28.0027C-0.0411211 30.1944 -0.0158192 32.4071 0.0100226 34.6669C0.015085 35.1096 0.0201682 35.5541 0.0201682 36.0007C0.0201682 36.8209 0.0144423 37.5669 0.00909238 38.2639C-0.0163296 41.5761 -0.0332627 43.7822 0.61299 47.5933C2.36965 47.9857 4.18893 48.0256 5.97709 48.0648L5.97749 48.0648C6.57803 48.078 7.17506 48.0911 7.76503 48.1175L15.8614 48.5713L3.6659 59.3677C4.75314 61.38 6.33561 62.9267 7.95185 64.5063C8.26847 64.8158 8.58639 65.1265 8.90214 65.4423C9.48213 66.0223 10.0056 66.5538 10.4947 67.0505L10.4947 67.0506C12.8187 69.4105 14.3668 70.9825 17.5185 73.2203C19.0381 72.2556 20.3528 70.9974 21.645 69.7607L21.6452 69.7605C22.0792 69.3452 22.5106 68.9322 22.9464 68.5337L28.9921 63.1297L28.0028 79.387C30.1946 80.0411 32.4072 80.0158 34.6671 79.99C35.1098 79.9849 35.5543 79.9798 36.0008 79.9798C36.8203 79.9798 37.5657 79.9855 38.2622 79.9909L38.2641 79.9909C41.5762 80.0163 43.7824 80.0332 47.5934 79.387C47.9858 77.6303 48.0257 75.8111 48.065 74.0229L48.065 74.0225C48.0782 73.422 48.0913 72.8249 48.1176 72.235L48.5445 64.6193C51.6037 68.1564 54.6875 71.654 58.1105 75.077C58.4266 75.3931 58.8168 75.635 59.207 75.8769C62.6563 73.692 65.6266 70.8797 68.4437 68.0626C68.7826 67.7237 69.1431 67.3782 69.5109 67.0257C70.8325 65.759 72.2487 64.4016 73.0995 62.9327L62.8193 51.3202C67.6953 51.6771 72.55 51.9967 77.6091 51.9967C78.0561 51.9967 78.5031 51.8918 78.9501 51.787C79.8441 47.803 79.9558 43.7141 79.9558 39.7301C79.9558 39.2509 79.9664 38.7518 79.9772 38.2426V38.2424V38.2422V38.2421C80.0161 36.4119 80.0577 34.4508 79.6206 32.8105L64.1411 31.8685C67.841 28.6732 71.4996 25.4666 75.0766 21.8895C75.3927 21.5734 75.6347 21.1832 75.8766 20.793C73.6916 17.3437 70.8794 14.3734 68.0623 11.5563C67.7233 11.2174 67.3778 10.8569 67.0253 10.4891C65.7586 9.16746 64.4013 7.75129 62.9323 6.90047L51.3204 17.1802C51.6772 12.3044 51.9968 7.44982 51.9968 2.39091C51.9968 1.94391 51.892 1.4969 51.7871 1.0499C47.8031 0.155899 43.7142 0.0441483 39.7302 0.0441483C39.2509 0.0441483 38.7517 0.0335551 38.2424 0.0227467Z" fill="#F56B2B"/>
</svg>
