<svg width="46" height="30" viewBox="0 0 46 30" fill="none" xmlns="http://www.w3.org/2000/svg">
<g id="Payment Method/Visa">
<rect x="0.4375" y="0.1875" width="44.625" height="29.625" rx="2.8125" fill="white"/>
<g id="Vector">
<path d="M30.7175 9.83766C30.1632 9.61778 29.2842 9.375 28.1972 9.375C25.4223 9.375 23.4682 10.8547 23.4562 12.9703C23.4332 14.5311 24.8553 15.3981 25.9189 15.9185C27.006 16.4503 27.3756 16.7974 27.3756 17.2715C27.3645 17.9995 26.4971 18.3351 25.6881 18.3351C24.5663 18.3351 23.9652 18.162 23.0517 17.757L22.6817 17.5834L22.2884 20.0228C22.9475 20.3231 24.1617 20.5895 25.4223 20.6012C28.3707 20.6012 30.2902 19.1444 30.3129 16.8899C30.3241 15.6528 29.5732 14.7049 27.9543 13.9303C26.9715 13.4331 26.3696 13.0978 26.3696 12.5891C26.3811 12.1265 26.8787 11.6528 27.9881 11.6528C28.9016 11.6296 29.5727 11.8492 30.0812 12.0689L30.3353 12.1843L30.7175 9.83766Z" fill="black"/>
<path d="M20.5312 20.4392H17.7213L19.4788 9.57199H22.2886L20.5312 20.4392Z" fill="black"/>
<path fill-rule="evenodd" clip-rule="evenodd" d="M37.9206 9.57199H35.7471C35.0769 9.57199 34.5676 9.76836 34.2785 10.4736L30.1047 20.4391H33.053C33.053 20.4391 33.5384 19.0978 33.6428 18.8089H37.2505C37.3312 19.1905 37.5858 20.4391 37.5858 20.4391H40.1875L37.9206 9.57199ZM34.4521 16.5894C34.6835 15.9651 35.5739 13.5488 35.5739 13.5488C35.5693 13.5581 35.6055 13.4577 35.6595 13.308L35.6601 13.3062L35.6606 13.305C35.7412 13.0814 35.861 12.7495 35.9436 12.5084L36.14 13.4448C36.14 13.4448 36.6721 16.046 36.7877 16.5894H34.4521Z" fill="black"/>
<path d="M15.3743 9.57199L12.6225 16.9824L12.3218 15.4795L12.3215 15.4786L11.339 10.4855C11.1772 9.79141 10.6799 9.59488 10.0672 9.57199H5.54625L5.5 9.79156C6.60263 10.0735 7.58883 10.4798 8.45295 10.985L10.9574 20.4277H13.9289L18.3456 9.57199H15.3743Z" fill="black"/>
</g>
<rect x="0.4375" y="0.1875" width="44.625" height="29.625" rx="2.8125" stroke="#DDDDDD" stroke-width="0.375"/>
</g>
</svg>
