<svg width="46" height="30" viewBox="0 0 46 30" fill="none" xmlns="http://www.w3.org/2000/svg">
<g id="Payment Method/Mastercard">
<rect x="1.0625" y="0.1875" width="44.625" height="29.625" rx="2.8125" fill="white"/>
<g id="Vector">
<path d="M38.375 14.8954C38.375 20.0199 34.2291 24.1658 29.1046 24.1658C26.9415 24.1658 24.9587 23.419 23.3879 22.1829C25.551 20.4834 26.9158 17.8568 26.9158 14.8954C26.9158 11.934 25.5252 9.30741 23.3879 7.60784C24.9587 6.37178 26.9415 5.625 29.1046 5.625C34.2291 5.625 38.375 9.79668 38.375 14.8954Z" fill="black"/>
<path d="M23.3879 7.60784C23.3879 7.60784 23.3879 7.60784 23.3879 7.60784C25.5252 9.30741 26.9158 11.934 26.9158 14.8954C26.9158 17.8568 25.551 20.4834 23.3879 22.1829L23.362 22.1829C21.2247 20.5091 19.8342 17.8568 19.8342 14.8954C19.8342 11.9341 21.2248 9.30746 23.3621 7.60789C23.3621 7.60787 23.3621 7.60791 23.3621 7.60789L23.3879 7.60784Z" fill="white"/>
<path d="M19.8342 14.8954C19.8342 11.9341 21.2248 9.30746 23.3621 7.60789C21.7913 6.37184 19.8085 5.62504 17.6454 5.62504C12.5209 5.62504 8.375 9.77096 8.375 14.8954C8.375 20.0199 12.5209 24.1658 17.6454 24.1658C19.8085 24.1658 21.7912 23.419 23.362 22.1829C21.2247 20.5091 19.8342 17.8568 19.8342 14.8954Z" fill="black"/>
</g>
<rect x="1.0625" y="0.1875" width="44.625" height="29.625" rx="2.8125" stroke="#DDDDDD" stroke-width="0.375"/>
</g>
</svg>
