<svg width="46" height="30" viewBox="0 0 46 30" fill="none" xmlns="http://www.w3.org/2000/svg">
<g id="Payment Method/Stripe">
<rect x="0.6875" y="0.1875" width="44.625" height="29.625" rx="2.8125" fill="white"/>
<g id="Vector">
<path d="M29.233 11.0304C28.9158 11.0285 28.6013 11.0893 28.3076 11.2093C28.0138 11.3293 27.7467 11.506 27.5214 11.7295L27.4089 11.175H25.4884V21.5571L27.6741 21.083V18.5679C28.1088 18.9319 28.658 19.1311 29.225 19.1304C30.7839 19.1304 32.2143 17.8527 32.2143 15.0241C32.2143 12.4366 30.7679 11.0304 29.233 11.0304ZM28.7107 17.1616C28.519 17.1727 28.3273 17.1409 28.1493 17.0686C27.9714 16.9963 27.8118 16.8854 27.6822 16.7437V13.4411C27.8124 13.2943 27.9738 13.1784 28.1545 13.1019C28.3352 13.0255 28.5308 12.9903 28.7268 12.9991C29.5304 12.9991 30.0768 13.9071 30.0768 15.0723C30.0768 16.2375 29.5223 17.1616 28.7107 17.1616Z" fill="black"/>
<path d="M36.2482 11.0304C34.1429 11.0304 32.8652 12.8464 32.8652 15.1366C32.8652 17.8446 34.3759 19.2187 36.5295 19.2187C37.37 19.2325 38.2 19.0305 38.9402 18.6321V16.8241C38.268 17.1633 37.5234 17.3343 36.7706 17.3223C35.9027 17.3223 35.1634 17.0089 35.0509 15.9562H39.3741C39.3741 15.8357 39.3741 15.3616 39.3741 15.1527C39.4464 12.8464 38.3536 11.0304 36.2482 11.0304ZM35.067 14.3009C35.067 13.2884 35.6857 12.8625 36.2322 12.8625C36.7786 12.8625 37.3572 13.2884 37.3572 14.3009H35.067Z" fill="black"/>
<path d="M19.5902 11.7777L19.4536 11.1187H17.5893V18.9214H19.7429V13.6339C19.9374 13.3978 20.1993 13.2266 20.4937 13.1434C20.788 13.0601 21.1008 13.0686 21.3902 13.1679V11.1187C21.0614 10.99 20.6969 10.9859 20.3654 11.1072C20.0338 11.2286 19.7581 11.4671 19.5902 11.7777Z" fill="black"/>
<path d="M8.70982 13.4652C8.70982 13.1116 8.99911 12.975 9.45714 12.975C10.2163 12.9913 10.9603 13.1898 11.6268 13.5536V11.4402C10.9377 11.1616 10.2003 11.0223 9.45714 11.0304C7.68125 11.0304 6.5 11.9786 6.5 13.5696C6.5 16.0607 9.82678 15.6589 9.82678 16.7277C9.82678 17.1455 9.47321 17.2821 9.02321 17.2821C8.17421 17.2325 7.34861 16.9848 6.6125 16.5589V18.7205C7.37118 19.0589 8.19249 19.2341 9.02321 19.2348C10.8393 19.2348 12.0929 18.3107 12.0929 16.6955C12.0527 13.9955 8.70982 14.4777 8.70982 13.4652Z" fill="black"/>
<path d="M14.9938 9.27053L12.8643 9.73661V16.9125C12.8533 17.2149 12.9041 17.5164 13.0136 17.7985C13.1231 18.0806 13.2889 18.3374 13.501 18.5533C13.7131 18.7691 13.967 18.9395 14.2471 19.0539C14.5273 19.1683 14.8278 19.2244 15.1304 19.2187C15.6583 19.2423 16.1843 19.1405 16.6652 18.9214V17.1134C16.3839 17.2339 15.0098 17.6437 15.0098 16.3098V13.0955H16.6652V11.2152H15.0098L14.9938 9.27053Z" fill="black"/>
<path d="M22.2018 10.4437L24.3955 9.98571V8.25L22.2018 8.70804V10.4437Z" fill="black"/>
<path d="M24.3955 11.175H22.2018V18.9214H24.3955V11.175Z" fill="black"/>
</g>
<rect x="0.6875" y="0.1875" width="44.625" height="29.625" rx="2.8125" stroke="#DDDDDD" stroke-width="0.375"/>
</g>
</svg>
