<svg width="46" height="30" viewBox="0 0 46 30" fill="none" xmlns="http://www.w3.org/2000/svg">
<g id="Payment Method/PayPal">
<rect x="0.3125" y="0.1875" width="44.625" height="29.625" rx="2.8125" fill="white"/>
<g id="Vector">
<path fill-rule="evenodd" clip-rule="evenodd" d="M11.7758 11.2508H9.5715C9.42065 11.2508 9.29236 11.3604 9.26884 11.5092L8.37731 17.1611C8.35959 17.2726 8.44597 17.3731 8.55911 17.3731H9.61146C9.7623 17.3731 9.89059 17.2635 9.91411 17.1144L10.1546 15.59C10.1778 15.4407 10.3064 15.3313 10.4569 15.3313H11.1547C12.6067 15.3313 13.4447 14.6287 13.6637 13.2364C13.7623 12.6273 13.6678 12.1488 13.3825 11.8135C13.0693 11.4456 12.5135 11.2508 11.7758 11.2508ZM12.0301 13.315C11.9096 14.1059 11.3052 14.1059 10.7209 14.1059H10.3882L10.6216 12.6288C10.6354 12.5397 10.7128 12.4739 10.8031 12.4739H10.9555C11.3536 12.4739 11.7291 12.4739 11.9232 12.7007C12.0388 12.8361 12.0742 13.0372 12.0301 13.315ZM18.365 13.2897H17.3094C17.2194 13.2897 17.1417 13.3554 17.1278 13.4448L17.0812 13.7399L17.0073 13.633C16.7788 13.3013 16.2693 13.1905 15.7607 13.1905C14.5941 13.1905 13.5979 14.0739 13.4038 15.3131C13.303 15.9311 13.4463 16.5221 13.797 16.9344C14.1187 17.3133 14.579 17.4713 15.1266 17.4713C16.0664 17.4713 16.5877 16.8669 16.5877 16.8669L16.5406 17.1603C16.5229 17.2725 16.6092 17.373 16.7217 17.373H17.6726C17.8238 17.373 17.9513 17.2634 17.9752 17.1142L18.5457 13.5018C18.5638 13.3906 18.4777 13.2897 18.365 13.2897ZM16.8935 15.3439C16.7916 15.9469 16.313 16.3517 15.7026 16.3517C15.3961 16.3517 15.1511 16.2534 14.9939 16.0671C14.8378 15.8822 14.7785 15.6188 14.8281 15.3256C14.9233 14.7277 15.41 14.3098 16.0111 14.3098C16.3108 14.3098 16.5545 14.4093 16.715 14.5972C16.8758 14.787 16.9396 15.0519 16.8935 15.3439ZM22.926 13.2895H23.9868C24.1354 13.2895 24.2221 13.4561 24.1376 13.578L20.6096 18.6699C20.5525 18.7524 20.4584 18.8014 20.3578 18.8014H19.2984C19.1492 18.8014 19.0621 18.6335 19.1485 18.5114L20.247 16.9609L19.0787 13.5325C19.0383 13.4133 19.1263 13.2895 19.253 13.2895H20.2954C20.4308 13.2895 20.5503 13.3784 20.5893 13.508L21.2094 15.5787L22.6725 13.4239C22.7297 13.3398 22.8249 13.2895 22.926 13.2895Z" fill="black"/>
<path fill-rule="evenodd" clip-rule="evenodd" d="M34.4275 17.1606L35.3322 11.4054C35.3461 11.3161 35.4235 11.2503 35.5134 11.25H36.5319C36.6443 11.25 36.7307 11.3508 36.7129 11.4624L35.8208 17.1139C35.7976 17.263 35.6693 17.3726 35.5182 17.3726H34.6086C34.4962 17.3726 34.4098 17.2721 34.4275 17.1606ZM27.4993 11.2503H25.2946C25.1441 11.2503 25.0159 11.3599 24.9923 11.5088L24.1008 17.1606C24.083 17.2721 24.1694 17.3726 24.282 17.3726H25.4132C25.5184 17.3726 25.6083 17.296 25.6247 17.1916L25.8777 15.5895C25.901 15.4402 26.0295 15.3308 26.18 15.3308H26.8775C28.3298 15.3308 29.1677 14.6282 29.3868 13.2359C29.4857 12.6269 29.3907 12.1483 29.1055 11.813C28.7924 11.4451 28.2371 11.2503 27.4993 11.2503ZM27.7537 13.3145C27.6334 14.1054 27.029 14.1054 26.4443 14.1054H26.112L26.3458 12.6284C26.3596 12.5392 26.4363 12.4734 26.5268 12.4734H26.6793C27.0771 12.4734 27.4529 12.4734 27.6469 12.7002C27.7626 12.8357 27.7978 13.0367 27.7537 13.3145ZM34.0879 13.2892H33.0331C32.9424 13.2892 32.8654 13.355 32.8518 13.4443L32.8052 13.7394L32.731 13.6325C32.5025 13.3008 31.9933 13.19 31.4847 13.19C30.3181 13.19 29.3222 14.0734 29.1281 15.3126C29.0276 15.9306 29.1703 16.5217 29.521 16.9339C29.8433 17.3128 30.303 17.4708 30.8506 17.4708C31.7904 17.4708 32.3116 16.8665 32.3116 16.8665L32.2646 17.1598C32.2469 17.272 32.3332 17.3725 32.4464 17.3725H33.3969C33.5474 17.3725 33.6756 17.2629 33.6992 17.1137L34.27 13.5013C34.2875 13.3902 34.2011 13.2892 34.0879 13.2892ZM32.6166 15.3434C32.5153 15.9464 32.0361 16.3512 31.4256 16.3512C31.1197 16.3512 30.8742 16.2529 30.7168 16.0666C30.5608 15.8817 30.5022 15.6183 30.5512 15.3251C30.6469 14.7272 31.133 14.3093 31.7341 14.3093C32.0339 14.3093 32.2774 14.4088 32.4381 14.5967C32.5995 14.7866 32.6633 15.0514 32.6166 15.3434Z" fill="black"/>
</g>
<rect x="0.3125" y="0.1875" width="44.625" height="29.625" rx="2.8125" stroke="#DDDDDD" stroke-width="0.375"/>
</g>
</svg>
