<svg width="40" height="40" viewBox="0 0 40 40" fill="none" xmlns="http://www.w3.org/2000/svg">
<g id="Search">
<g id="Group">
<path id="Vector" d="M23.3994 32.8387C23.3994 33.608 20.2763 34.2318 16.4237 34.2318C10.6277 34.2318 10.4417 33.7466 10.4417 32.9773C10.4417 32.8038 10.2922 33.017 10.5039 32.8529C11.3053 33.4125 11.9402 33.2995 12.6249 33.1293C13.5231 32.8529 13.3372 31.6301 14.0326 31.5585C14.7342 31.4863 15.5329 31.4456 16.4237 31.4456C20.2763 31.4456 23.3994 32.0693 23.3994 32.8387Z" fill="white"/>
<g id="Group_2">
<g id="Group_3">
<path id="Subtract" fill-rule="evenodd" clip-rule="evenodd" d="M21.8074 22.2759C23.7862 22.3797 25.3041 21.6404 25.7042 21.4378C27.3362 20.6142 28.1929 19.4469 28.5203 18.9789C28.5229 18.9751 28.5264 18.97 28.5308 18.9636C28.7169 18.691 30.484 16.1033 30.2373 13.1308C30.615 14.5731 30.8215 16.7289 29.6175 18.8054C28.2682 21.1232 25.997 21.9538 25.2079 22.1981C21.6996 23.2662 16.9908 21.9729 15.1989 18.3175C14.328 16.57 14.3984 14.802 14.6836 13.4768C14.5141 14.6584 14.5178 16.2123 15.1176 17.8077C16.1507 20.4821 19.0756 22.1515 21.8074 22.2759Z" fill="white"/>
</g>
<path id="Vector_2" d="M17.7019 24.6594C17.9874 24.8588 18.0808 25.2244 17.915 25.524L13.7602 32.9905C13.609 33.2553 13.3776 33.4666 13.1054 33.5793C12.6848 33.7535 12.0672 33.79 11.3537 33.5369" stroke="white" stroke-width="0.8" stroke-miterlimit="10"/>
<path id="Line" d="M15.4631 23.0037L17.2202 20.457" stroke="white" stroke-width="0.8" stroke-miterlimit="10"/>
<path id="Line_2" d="M17.4119 24.4201L19.2649 21.5449" stroke="white" stroke-width="0.8" stroke-miterlimit="10"/>
<path id="Line_3" d="M17.4119 24.7819L19.2649 21.9067" stroke="white" stroke-width="0.8" stroke-miterlimit="10"/>
<path id="Vector_3" d="M24.7881 21.7293C21.2902 22.8024 16.8014 21.2658 15.017 17.587C13.3858 14.2779 15.0841 10.8893 15.2397 10.565C16.3696 8.39351 18.2325 7.36219 18.8205 7.03208C19.4579 6.68147 20.8668 5.95367 22.6619 6.01874C25.6903 6.12174 28.225 8.3926 29.3796 10.8307C29.7046 11.4757 31.2078 14.8956 29.3638 18.1424C28.0564 20.4451 25.5858 21.4856 24.7881 21.7293Z" stroke="white" stroke-width="0.8" stroke-miterlimit="10"/>
<path id="Vector_4" d="M24.7204 19.4591C24.4089 19.6169 23.3013 20.1622 21.8439 20.0728C19.8245 19.9562 17.6486 18.6917 16.8611 16.6502C16.2735 15.1611 16.6205 13.6892 16.8194 12.7695C16.9239 12.3219 17.0517 11.7204 17.4371 11.0411C18.0857 9.8774 19.0417 9.10613 19.7141 8.76992C22.0719 7.53366 26.184 8.57381 27.6083 11.5932C28.9568 14.4997 26.9161 17.4815 26.8332 17.6313C26.5437 17.9822 25.9168 18.8481 24.7204 19.4591Z" stroke="white" stroke-width="0.8" stroke-miterlimit="10"/>
<path id="Vector_5" d="M15.4951 23.2215L17.3172 24.4016C17.6027 24.6009 17.6961 24.9665 17.5303 25.2661L13.3755 32.7327C13.2242 32.9974 12.9929 33.2087 12.7207 33.3214C12.3001 33.4956 11.6406 33.6532 10.9271 33.4001C10.0985 33.0791 9.53307 32.2738 9.45822 31.3231C9.44492 31.011 9.51606 30.6928 9.70226 30.4424C11.4158 28.0004 12.8834 25.8045 14.5824 23.3974C14.7831 23.1122 15.1849 23.0324 15.4951 23.2215Z" stroke="white" stroke-width="0.8" stroke-miterlimit="10"/>
</g>
</g>
</g>
</svg>
