<svg width="216" height="41" viewBox="0 0 216 41" fill="none" xmlns="http://www.w3.org/2000/svg">
<g id="Tandori Logo">
<g id="tandori">
<path d="M66.206 39.9546C65.4744 40.1357 64.7884 40.2895 64.1482 40.4162C63.5172 40.552 62.9181 40.6606 62.3511 40.7421C61.7932 40.8326 61.2627 40.8959 60.7597 40.9321C60.2659 40.9774 59.7903 41 59.333 41C52.7572 41 49.4693 36.7552 49.4693 28.2656V18.803H47V10.25H49.4693V3.35331H61.1301V10.25H66.206V18.803H61.1301V28.2791C61.1301 28.9489 61.1667 29.5191 61.2399 29.9897C61.3222 30.4513 61.4457 30.8315 61.6103 31.1301C61.7841 31.4198 62.0081 31.6324 62.2825 31.7682C62.5569 31.904 62.8861 31.9719 63.2702 31.9719C63.5995 31.9719 63.9973 31.9266 64.4638 31.8361C64.9393 31.7456 65.5201 31.6008 66.206 31.4017V39.9546Z" fill="white"/>
<path d="M67.475 22.0341C67.475 20.0429 67.7631 18.269 68.3392 16.7123C68.9154 15.1465 69.7523 13.8251 70.8497 12.748C71.9564 11.671 73.3054 10.8519 74.8967 10.2907C76.4972 9.72053 78.3172 9.43543 80.3567 9.43543C82.4328 9.43543 84.2848 9.72958 85.9127 10.3179C87.5498 10.8971 88.9308 11.7434 90.0558 12.8566C91.1898 13.9699 92.0541 15.332 92.6486 16.943C93.243 18.5541 93.5403 20.3823 93.5403 22.4278V40.1854H82.4282V37.253H82.291C81.4039 39.751 79.273 41 75.8982 41C74.5172 41 73.2688 40.7964 72.153 40.3891C71.0464 39.9908 70.0998 39.4206 69.3133 38.6785C68.5267 37.9363 67.9185 37.0403 67.4887 35.9904C67.068 34.9315 66.8576 33.7503 66.8576 32.447C66.8576 30.9627 67.1366 29.6413 67.6945 28.4828C68.2615 27.3243 69.08 26.3468 70.1501 25.5503C71.2293 24.7539 72.5554 24.152 74.1285 23.7447C75.7016 23.3284 77.4987 23.1202 79.5199 23.1202H81.8795V21.9255C81.8795 21.1109 81.8566 20.4412 81.8109 19.9162C81.7652 19.3913 81.6783 18.9795 81.5502 18.6808C81.4313 18.3731 81.2667 18.1649 81.0564 18.0563C80.846 17.9386 80.5762 17.8798 80.247 17.8798C79.9086 17.8798 79.6296 17.9386 79.4101 18.0563C79.1998 18.1739 79.0306 18.3912 78.9026 18.7079C78.7837 19.0157 78.7013 19.4365 78.6556 19.9705C78.6099 20.5045 78.587 21.1924 78.587 22.0341H67.475ZM80.6448 28.5507C79.9772 28.5507 79.4604 28.7362 79.0946 29.1073C78.7379 29.4693 78.5596 29.9897 78.5596 30.6685C78.5596 31.2568 78.6922 31.723 78.9574 32.0669C79.2227 32.4108 79.5793 32.5828 80.0275 32.5828C80.6037 32.5828 81.0564 32.2977 81.3856 31.7275C81.7149 31.1482 81.8795 30.3608 81.8795 29.3652V28.5507H80.6448Z" fill="white"/>
<path d="M106.412 40.1854H94.7514V10.25H106.138V14.0649H106.275C106.933 12.4991 107.843 11.3361 109.005 10.5758C110.176 9.81556 111.644 9.43543 113.409 9.43543C114.854 9.43543 116.088 9.65265 117.113 10.0871C118.137 10.5215 118.974 11.2139 119.623 12.1642C120.272 13.1055 120.748 14.3274 121.05 15.8298C121.352 17.3232 121.503 19.1379 121.503 21.2738V40.1854H109.705V25.2245C109.705 24.1837 109.695 23.2831 109.677 22.5228C109.668 21.7626 109.641 21.1155 109.595 20.5815C109.549 20.0475 109.485 19.613 109.403 19.2781C109.33 18.9342 109.234 18.6672 109.115 18.4771C108.996 18.2871 108.849 18.1604 108.676 18.097C108.502 18.0246 108.296 17.9884 108.058 17.9884C107.821 17.9884 107.615 18.0246 107.441 18.097C107.267 18.1604 107.121 18.2871 107.002 18.4771C106.883 18.6672 106.783 18.9342 106.7 19.2781C106.627 19.613 106.568 20.0475 106.522 20.5815C106.476 21.1155 106.444 21.7626 106.426 22.5228C106.417 23.2831 106.412 24.1837 106.412 25.2245V40.1854Z" fill="white"/>
<path d="M149.079 0V40.1854H137.693V37.1172H137.555C137.217 37.8141 136.851 38.4115 136.458 38.9093C136.074 39.398 135.649 39.8008 135.182 40.1175C134.716 40.4253 134.204 40.647 133.646 40.7828C133.097 40.9276 132.484 41 131.807 41C130.207 41 128.812 40.7194 127.623 40.1583C126.443 39.5881 125.46 38.674 124.674 37.4159C123.887 36.1578 123.297 34.5242 122.904 32.5149C122.52 30.5056 122.328 28.0619 122.328 25.1838C122.328 22.3237 122.52 19.8936 122.904 17.8934C123.288 15.8932 123.864 14.2685 124.633 13.0195C125.41 11.7615 126.379 10.8519 127.541 10.2907C128.712 9.72053 130.079 9.43543 131.643 9.43543C132.301 9.43543 132.9 9.50784 133.44 9.65265C133.989 9.78841 134.487 10.0102 134.935 10.3179C135.393 10.6256 135.813 11.0238 136.197 11.5126C136.581 12.0013 136.943 12.5941 137.281 13.2911H137.418V0H149.079ZM137.418 25.2109C137.418 24.1701 137.409 23.2695 137.391 22.5093C137.382 21.749 137.354 21.1019 137.309 20.5679C137.263 20.0339 137.199 19.5994 137.116 19.2646C137.043 18.9297 136.947 18.6672 136.828 18.4771C136.709 18.2871 136.563 18.1604 136.389 18.097C136.216 18.0246 136.01 17.9884 135.772 17.9884C135.534 17.9884 135.328 18.0246 135.155 18.097C134.981 18.1604 134.835 18.2871 134.716 18.4771C134.597 18.6672 134.496 18.9297 134.414 19.2646C134.341 19.5994 134.281 20.0339 134.236 20.5679C134.19 21.1019 134.158 21.749 134.14 22.5093C134.13 23.2695 134.126 24.1701 134.126 25.2109C134.126 26.7677 134.144 28.0212 134.181 28.9715C134.226 29.9128 134.304 30.6414 134.414 31.1573C134.533 31.6732 134.697 32.0171 134.908 32.1891C135.127 32.361 135.415 32.447 135.772 32.447C136.129 32.447 136.412 32.361 136.623 32.1891C136.842 32.0171 137.007 31.6732 137.116 31.1573C137.235 30.6414 137.313 29.9128 137.35 28.9715C137.395 28.0212 137.418 26.7677 137.418 25.2109Z" fill="white"/>
<path d="M149.979 25.2109C149.979 23.7447 150.126 22.3418 150.418 21.0023C150.711 19.6538 151.132 18.3957 151.68 17.2281C152.229 16.0515 152.897 14.9836 153.683 14.0242C154.479 13.0648 155.371 12.2457 156.358 11.5669C157.355 10.8881 158.448 10.3631 159.637 9.99205C160.826 9.61192 162.088 9.42185 163.424 9.42185C164.768 9.42185 166.03 9.61192 167.21 9.99205C168.399 10.3631 169.487 10.8881 170.475 11.5669C171.472 12.2457 172.363 13.0648 173.15 14.0242C173.946 14.9836 174.618 16.0515 175.167 17.2281C175.715 18.3957 176.136 19.6538 176.429 21.0023C176.721 22.3509 176.868 23.7538 176.868 25.2109C176.868 26.6681 176.721 28.071 176.429 29.4195C176.136 30.7681 175.715 32.0307 175.167 33.2073C174.618 34.3748 173.946 35.4383 173.15 36.3977C172.363 37.3571 171.472 38.1762 170.475 38.855C169.487 39.5338 168.399 40.0587 167.21 40.4298C166.021 40.8099 164.759 41 163.424 41C162.088 41 160.826 40.8099 159.637 40.4298C158.448 40.0587 157.355 39.5338 156.358 38.855C155.371 38.1762 154.479 37.3571 153.683 36.3977C152.897 35.4383 152.229 34.3748 151.68 33.2073C151.132 32.0307 150.711 30.7681 150.418 29.4195C150.126 28.071 149.979 26.6681 149.979 25.2109ZM161.777 25.2109C161.777 26.288 161.786 27.2157 161.805 27.994C161.823 28.7724 161.855 29.4286 161.901 29.9626C161.947 30.4966 162.006 30.9265 162.079 31.2523C162.161 31.5781 162.262 31.8316 162.381 32.0126C162.509 32.1845 162.655 32.3022 162.82 32.3656C162.994 32.4199 163.195 32.447 163.424 32.447C163.652 32.447 163.849 32.4199 164.013 32.3656C164.187 32.3022 164.334 32.1845 164.452 32.0126C164.58 31.8316 164.681 31.5781 164.754 31.2523C164.837 30.9265 164.901 30.4966 164.946 29.9626C164.992 29.4286 165.024 28.7724 165.042 27.994C165.061 27.2157 165.07 26.288 165.07 25.2109C165.07 24.1339 165.061 23.2062 165.042 22.4278C165.024 21.6494 164.992 20.9933 164.946 20.4593C164.901 19.9253 164.837 19.4954 164.754 19.1695C164.681 18.8437 164.58 18.5948 164.452 18.4228C164.334 18.2418 164.187 18.1242 164.013 18.0699C163.849 18.0065 163.652 17.9748 163.424 17.9748C163.195 17.9748 162.994 18.0065 162.82 18.0699C162.655 18.1242 162.509 18.2418 162.381 18.4228C162.262 18.5948 162.161 18.8437 162.079 19.1695C162.006 19.4954 161.947 19.9253 161.901 20.4593C161.855 20.9933 161.823 21.6494 161.805 22.4278C161.786 23.2062 161.777 24.1339 161.777 25.2109Z" fill="white"/>
<path d="M189.42 40.1854H177.759V10.25H189.146V14.0242H189.283C189.594 13.2458 189.96 12.5715 190.381 12.0013C190.81 11.4221 191.304 10.9424 191.862 10.5622C192.42 10.1821 193.047 9.90154 193.742 9.72053C194.446 9.53046 195.228 9.43543 196.087 9.43543C197.386 9.43543 198.497 9.65265 199.421 10.0871C200.354 10.5215 201.113 11.2139 201.698 12.1642C202.293 13.1146 202.727 14.3409 203.002 15.8434C203.276 17.3368 203.413 19.1469 203.413 21.2738V24.1113H192.713V22.8487C192.713 21.844 192.69 21.0249 192.644 20.3914C192.598 19.7578 192.516 19.2646 192.397 18.9116C192.278 18.5586 192.114 18.3188 191.903 18.1921C191.693 18.0563 191.423 17.9884 191.094 17.9884C190.856 17.9884 190.646 18.0246 190.463 18.097C190.289 18.1604 190.138 18.2871 190.01 18.4771C189.891 18.6672 189.791 18.9342 189.708 19.2781C189.635 19.613 189.576 20.0475 189.53 20.5815C189.484 21.1155 189.452 21.7626 189.434 22.5228C189.425 23.2831 189.42 24.1837 189.42 25.2245V40.1854Z" fill="white"/>
<path d="M216 7.60265H204.339V0H216V7.60265ZM216 40.1854H204.339V10.25H216V40.1854Z" fill="white"/>
</g>
<g id="Tandori Logo_2">
<g id="Group 44">
<path id="Vector" d="M14.7641 5.17073C15.7077 4.91929 16.8871 5.01987 17.8779 5.01987C19.6707 5.01987 21.5107 5.07015 23.3035 5.47246C23.3507 5.67361 23.3979 5.87476 23.3979 6.07591C23.3979 10.1995 22.9261 14.0214 22.7374 18.145L21.6522 37.5057C21.6051 38.5618 21.6522 39.6681 21.4163 40.7242C19.3405 41.0762 18.3227 40.9909 16.1997 40.9909C14.973 40.9909 13.7801 41.0762 12.6006 40.7242L14.7641 5.17073Z" fill="white"/>
<path id="Vector_2" d="M35.8293 19.7651C36.0807 20.7086 35.9801 21.8881 35.9801 22.8789C35.9801 24.6717 35.9298 26.5117 35.5275 28.3045C35.3264 28.3517 35.1252 28.3988 34.9241 28.3988C30.8005 28.3988 26.9786 27.927 22.855 27.7383L3.49426 26.6532C2.43822 26.606 1.33189 26.6532 0.275844 26.4173C-0.0761684 24.3414 0.00907491 23.3237 0.00907501 21.2007C0.00907506 19.974 -0.0761681 18.781 0.275845 17.6016L35.8293 19.7651Z" fill="white"/>
<path id="Vector_3" d="M28.3195 8.10538C29.1645 8.5948 29.9274 9.49994 30.628 10.2005C31.8957 11.4682 33.1612 12.8048 34.1444 14.357C34.0356 14.5326 33.9267 14.7082 33.7844 14.8504C30.8686 17.7663 27.8326 20.1351 24.7833 22.9175L10.3259 35.8403C9.54576 36.5537 8.79683 37.3694 7.88329 37.9493C6.16651 36.7303 5.50715 35.9504 4.00592 34.4492C3.13854 33.5818 2.23472 32.7986 1.64961 31.7156L28.3195 8.10538Z" fill="white"/>
<path id="Vector_4" d="M32.8946 33.3202C32.4052 34.1652 31.5001 34.9281 30.7995 35.6287C29.5318 36.8964 28.1952 38.1619 26.643 39.1452C26.4674 39.0363 26.2918 38.9274 26.1496 38.7852C23.2337 35.8694 20.8649 32.8333 18.0825 29.784L5.15966 15.3266C4.44628 14.5465 3.63063 13.7976 3.05069 12.884C4.26965 11.1672 5.04957 10.5079 6.5508 9.00664C7.41818 8.13927 8.20145 7.23544 9.28438 6.65033L32.8946 33.3202Z" fill="white"/>
</g>
</g>
</g>
</svg>
