<svg width="662" height="404" viewBox="0 0 662 404" fill="none" xmlns="http://www.w3.org/2000/svg">
<path d="M41.9998 297.223C41.9998 297.223 1.50008 247 0.500041 208C-0.5 169 41.9998 152.624 41.9998 152.624C45.0686 151.48 48.485 150.609 52.288 150.064C61.0323 148.809 77.7973 151.531 82.0449 157.406C97.571 178.899 101.48 189.876 105.505 201.178C109.272 211.756 113.141 222.618 126.73 242.652C175.888 315.122 243.686 359.793 363.046 385.224C364.293 385.489 365.588 385.766 366.925 386.054C396.861 392.471 448.442 403.53 479.781 392.58C485.9 390.444 473.499 383.986 466.958 382.371C407.547 367.721 353.927 347.302 301.484 324.336C226.583 291.525 165.94 242.899 138.857 189.516C128.487 169.078 120.208 135.868 121.665 113.139C124.268 72.5914 144.702 59.0727 173.477 55.959C214.652 51.503 248.431 86.5677 251.194 90.083C271.858 116.317 284.3 143.89 296.745 171.469C309.93 200.69 323.118 229.916 346.09 257.561C359.921 274.204 373.626 281.363 391.767 290.84C398.141 294.17 405.063 297.786 412.731 302.2C415.615 303.861 419.517 306.557 424.152 309.759C441.881 322.005 470.321 341.654 493.497 339.091C505.836 337.723 488.132 323.545 479.781 317.878C475.451 314.939 469.448 311.006 462.554 306.49C437.834 290.295 401.647 266.585 389.871 254.242C341.253 203.285 285.617 113.454 286.764 49.9816C287.007 36.5853 292.203 8.92806 321.173 1.94697C379.14 -12.0277 398.189 53.2504 402.882 69.3367C403.253 70.6055 403.533 71.5683 403.737 72.1619C412.503 97.7248 414.902 118.129 417.093 136.749C421.101 170.814 424.404 198.899 464.694 241.659C481.605 259.605 551.268 323.423 573.653 321.913C582.862 321.292 563.977 303.407 542.378 282.952C524.781 266.287 505.385 247.918 497.915 235.79C470.603 191.459 465.201 155.973 458.408 111.342C457.02 102.227 455.575 92.7323 453.872 82.7038C452.007 71.7069 454.945 43.4298 476.732 35.6696C518.777 20.695 547.546 47.718 548.354 69.7932C554.706 243.386 624.431 286.748 628.91 284.478C642.473 277.605 633.806 247.724 629.531 232.987C628.541 229.569 627.785 226.965 627.597 225.653C626.037 214.669 624.948 203.661 623.857 192.654C622.419 178.118 620.979 163.583 618.455 149.105C616.14 135.832 613.197 128.922 610.478 122.539C607.288 115.053 604.408 108.293 603.216 92.8489C602.262 80.5055 598.292 25.8647 647.873 35.9283C667.255 39.8639 681.822 60.887 685.505 68.8691C700.821 102.044 695.382 145.717 690.673 183.514C689.127 195.927 687.66 207.708 687.032 218.273C686.877 220.877 686.724 223.271 686.582 225.507C685.498 242.494 685.005 250.233 688.554 269.919C689.321 274.168 693.389 283.392 699.221 280.987C715.5 274.276 712.034 246.429 710.439 233.612C710.156 231.343 709.931 229.546 709.886 228.419C709.591 220.981 709.155 213.004 708.7 204.683C706.616 166.603 704.137 121.305 712.937 87.3161C716.532 73.4258 731.979 44.8256 762 40.4382V403.055H189.009C162.442 392.713 135.821 379.361 126.345 373.024C89.2079 348.184 60.7844 324.024 41.9998 297.223Z" fill="#25481C"/>
</svg>
